<svg xmlns="http://www.w3.org/2000/svg" viewBox="0 0 255 255">
  <g transform="matrix(1,0,0,1,-32,16)">
    <g transform="matrix(1,0,0,1,24,-27)">

      <g>
        <path d="M408,216 C416.6667,188 425.3333,160 456,160 C486.6667,160 539.3333,188 592,216"
              transform="matrix(1.016399929,-1.003125868,1.303438013,1.28641527,-635.737517481,344.700978082)"
              fill="#e2cba9" stroke="#000000" stroke-width="2"/>
      </g>

      <g>
        <path d="M592,224 C539.3333,216 486.6667,208 456,208 C425.3333,208 416.6667,216 408,224"
              transform="matrix(1.016399929,-1.003125868,1.303438013,1.28641527,-646.165021588,334.409655923)"
              fill="#c99d5c" stroke="#000000" stroke-width="2"/>
      </g>

      <g>
        <path d="M408,216 C416.6667,188 425.3333,160 456,160 C486.6667,160 539.3333,188 592,216"
              transform="matrix(1.016399929,-1.003125868,-1.303438013,-1.28641527,-72.652295719,900.432374622)"
              fill="#c99d5c" stroke="#000000" stroke-width="2"/>
      </g>

      <g>
        <circle cx="60.58" cy="212.81" r="2"
                fill="#000000" stroke="#000000" stroke-width="2"/>
      </g>

    </g>
  </g>
</svg>

